# xmcd
# 
# Track frame offsets:
#     150
#     17613
#     33483
#     47926
#     61891
#     78893
#     93587
#     109060
#     125210
#     143180
#     162927
#     175672
#     190808
#     205218
# 
# Disc length: 2946
# 
# Revision: 2
# Processed by: cddbd v1.5.2PL0 Copyright (c) Steve Scherf et al.
# Submitted via: BonkEnc v1.0.6
# 
DISCID=be0b800e
DTITLE=Edson e Hudson - Românticas - Romanticas 
DYEAR=2007
DGENRE=sertanejo
TTITLE0=Por que chora a tarde
TTITLE1=Porta-retrato
TTITLE2=Bye, Bye,tristeza
TTITLE3=Azul
TTITLE4=Jura (lluvia)
TTITLE5=Ciume exagerado
TTITLE6=Volta
TTITLE7=Mil razões para chorar
TTITLE8=Meu anjo (Angel|)
TTITLE9=Você é tudo que eu preciso (un amor que termina así)
TTITLE10=Te dar tristeza nunca mais (Cant't be really gone)
TTITLE11=Quer namora comigo
TTITLE12=Te Quero para mim (it matters to me)
TTITLE13=Deixa eu te amar
EXTD=emerson@betim.mg.gov.br
EXTT0=
EXTT1=
EXTT2=
EXTT3=
EXTT4=
EXTT5=
EXTT6=
EXTT7=
EXTT8=
EXTT9=
EXTT10=
EXTT11=
EXTT12=
EXTT13=
PLAYORDER=
